<?xml version="1.0" encoding="UTF-8"?>
<svg id="Layer_2" data-name="Layer 2" xmlns="http://www.w3.org/2000/svg" viewBox="0 0 90.61 90.08">
  <defs>
    <style>
      .cls-1 {
        fill: #fff9f0;
      }

      .cls-2 {
        fill: #f9c66d;
      }

      .cls-3 {
        fill: #e6673b;
      }
    </style>
  </defs>
  <g id="Layer_1-2" data-name="Layer 1">
    <g>
      <rect class="cls-2" x="1.63" y="2.77" width="87.3" height="87.3" rx="13.78" ry="13.78"/>
      <path class="cls-3" d="M1.38,7.46C-.95,11.47-.97,27.31,6.44,27.56c1.3.04,3.04-.67,3.92-1.96,1.02-1.49.67-3.4,2.12-4.17.28-.15.57-.3.82-.25,2.84.69-1.54,26.23,3.39,28.57,1.31.63,2.43.28,2.43.28,1.45-.45,2.13-2.1,2.37-2.7,2.46-6.02-2.84-19.7-.16-21.25.58-.34,1.35.02,1.43.05,2.48,1.18-.25,7.93,3.13,11.11.26.25,1.34,1.26,2.72,1.18,1.27-.08,2.14-1.05,2.45-1.39,3.45-3.82-.84-12.69,2.94-16.02,1.54-1.35,3.88-1.32,4.66-1.31.73,0,3.54.05,5.23,1.88,2.77,3,.04,8.11,2.86,10.54.23.2,1,.86,2.12.98,1.06.11,2.11-.29,2.78-.82,2.46-1.95.15-6.03,2.78-8.66.23-.23,1.25-1.25,2.61-1.23,1.06.02,1.83.67,2.08.87,3.3,2.76-.76,12.76,3.32,16.37.27.24,1.71,1.51,3.35,1.23,1.19-.21,1.94-1.13,2.21-1.47,1.77-2.25.24-4.49,1.88-6.13.84-.84,2.05-1.06,3.02-1.23,1.17-.21,2.06-.36,2.86.08,1.51.83.84,2.72,2.61,4,.21.15,1.15.84,2.29.65,1-.16,1.62-.91,1.88-1.23,1.79-2.21.42-4.9,2.04-6.13.56-.42.89-.32,1.47-.49,6.14-1.81,6.31-20.47-.98-25.98-2.33-1.76-4.84-2.21-8.77-2.67-2.71-.32-5.99-.7-9.37.71-.92.38-1.46.74-2.61.98-2.53.53-4.3-.28-6.13-.74-5.6-1.4-6.99,1.69-13.07.25-2.81-.67-2.72-1.38-4.66-1.39-3.27-.02-4.69,1.99-7.93,1.39-.77-.14-1.37-.38-2.45-.33-1.75.09-1.95.82-3.35.82-1.6,0-1.93-.94-3.68-.9-.95.02-1.63.32-2.04.49-3.32,1.34-8.8,1.39-9.01,1.39-4.87.03-6.93,1.48-9.3,3.04-.75.49-1.13,1.12-1.32,1.45Z"/>
      <g>
        <path class="cls-1" d="M17.57,48.71c-1.37,0-2.54-.27-3.52-.81-.98-.54-1.74-1.3-2.26-2.29-.52-.99-.78-2.15-.78-3.48,0-.99.15-1.89.44-2.7.3-.81.73-1.5,1.29-2.08.57-.58,1.26-1.02,2.07-1.32.82-.3,1.73-.45,2.74-.45.63,0,1.25.07,1.87.22s1.15.36,1.61.63c.3.18.51.4.62.64.11.25.14.5.1.74-.04.25-.15.46-.31.65s-.37.31-.61.36c-.24.05-.51,0-.82-.17-.36-.22-.74-.37-1.13-.47-.39-.1-.8-.14-1.22-.14-.81,0-1.49.16-2.04.48-.55.32-.96.78-1.23,1.38-.27.6-.41,1.34-.41,2.24s.14,1.61.41,2.23c.27.62.68,1.08,1.23,1.4.55.32,1.23.48,2.04.48.39,0,.78-.05,1.19-.15.4-.1.79-.25,1.17-.45.31-.16.59-.21.83-.17.24.04.44.15.61.33.16.18.27.39.32.63.05.25.02.49-.07.72-.1.24-.28.44-.54.61-.46.3-1.01.53-1.65.7-.64.16-1.29.24-1.96.24Z"/>
        <path class="cls-1" d="M27.19,48.71c-.95,0-1.78-.19-2.48-.56-.7-.37-1.25-.91-1.64-1.6-.39-.69-.59-1.52-.59-2.47,0-.71.11-1.35.33-1.92.22-.57.53-1.05.95-1.46.42-.4.92-.71,1.5-.92.59-.21,1.23-.32,1.93-.32.95,0,1.79.19,2.49.56s1.26.91,1.65,1.6c.39.7.59,1.51.59,2.46,0,.71-.11,1.36-.33,1.94-.22.58-.54,1.07-.95,1.47-.41.4-.91.7-1.49.92-.58.21-1.23.32-1.96.32ZM27.19,46.68c.4,0,.74-.09,1.03-.28.29-.19.52-.47.69-.86.17-.39.25-.88.25-1.47,0-.88-.18-1.53-.54-1.95s-.84-.62-1.43-.62c-.39,0-.73.09-1.02.27-.3.18-.52.46-.69.85s-.25.87-.25,1.45c0,.89.18,1.55.54,1.97s.83.63,1.41.63Z"/>
        <path class="cls-1" d="M34.98,48.67c-.42,0-.75-.12-1-.35-.24-.24-.36-.58-.36-1.02v-6.43c0-.45.12-.79.35-1.02s.57-.35,1-.35.75.12.98.35.34.58.34,1.02v1.14l-.2-.69c.24-.57.62-1.02,1.12-1.36.51-.34,1.11-.51,1.79-.51s1.26.16,1.72.49.78.82.98,1.49h-.25c.27-.6.68-1.08,1.23-1.44s1.18-.53,1.88-.53,1.24.13,1.68.4c.45.27.78.68,1,1.24.22.56.33,1.26.33,2.11v4.09c0,.45-.12.79-.35,1.02s-.58.35-1.02.35c-.42,0-.75-.12-1-.35-.24-.24-.36-.58-.36-1.02v-4c0-.6-.09-1.04-.27-1.31-.18-.27-.51-.41-.98-.41-.51,0-.91.18-1.2.54-.29.36-.43.88-.43,1.54v3.64c0,.45-.12.79-.35,1.02-.24.24-.57.35-1,.35s-.77-.12-1.01-.35-.36-.58-.36-1.02v-4c0-.6-.1-1.04-.29-1.31-.19-.27-.51-.41-.94-.41-.52,0-.92.18-1.21.54s-.43.88-.43,1.54v3.64c0,.92-.46,1.38-1.38,1.38Z"/>
        <path class="cls-1" d="M51.05,38.02c-.5,0-.88-.12-1.14-.36-.27-.24-.4-.59-.4-1.03s.13-.77.4-1,.65-.35,1.14-.35.9.12,1.17.35c.27.24.41.57.41,1s-.14.79-.41,1.03c-.27.24-.66.36-1.17.36ZM51.05,48.67c-.42,0-.75-.13-1-.39-.24-.26-.36-.62-.36-1.1v-6.21c0-.48.12-.85.36-1.1.24-.25.57-.37,1-.37.45,0,.79.12,1.02.37.24.25.35.61.35,1.1v6.21c0,.47-.12.84-.34,1.1-.23.26-.57.39-1.03.39Z"/>
        <path class="cls-1" d="M55.9,48.67c-.42,0-.75-.12-1-.35-.24-.24-.36-.58-.36-1.02v-6.43c0-.45.12-.79.35-1.02.24-.24.57-.35,1-.35s.75.12.98.35c.23.24.34.58.34,1.02v1.03l-.2-.58c.27-.6.68-1.07,1.23-1.39.56-.32,1.18-.48,1.87-.48.72,0,1.31.14,1.77.41.45.27.79.69,1.02,1.24.23.56.34,1.26.34,2.1v4.09c0,.45-.12.79-.34,1.02-.23.24-.57.35-1.01.35-.42,0-.76-.12-1.01-.35-.25-.24-.37-.58-.37-1.02v-3.99c0-.62-.11-1.06-.33-1.33-.22-.27-.56-.41-1.01-.41-.58,0-1.04.18-1.39.54-.34.36-.52.84-.52,1.45v3.73c0,.92-.46,1.38-1.38,1.38Z"/>
        <path class="cls-1" d="M69.59,51.97c-.65,0-1.28-.05-1.87-.15-.6-.1-1.13-.26-1.58-.48-.28-.11-.47-.26-.59-.46-.12-.2-.16-.41-.14-.62.02-.22.09-.41.21-.58.11-.17.27-.29.47-.35s.41-.05.62.04c.53.24,1.02.4,1.48.47.45.07.84.11,1.17.11.77,0,1.35-.18,1.74-.53.39-.35.58-.89.58-1.61v-1.39h.16c-.19.58-.57,1.04-1.12,1.38-.56.34-1.18.51-1.88.51-.8,0-1.49-.18-2.08-.55s-1.05-.88-1.38-1.54c-.33-.66-.49-1.43-.49-2.33,0-.66.09-1.27.28-1.81.19-.54.45-1.01.8-1.39.34-.39.76-.69,1.25-.9.49-.21,1.03-.32,1.62-.32.71,0,1.34.17,1.89.52.55.34.91.79,1.08,1.33l-.16.62v-1.05c0-.45.12-.79.36-1.02.24-.24.57-.35,1-.35s.77.12,1,.35.34.58.34,1.02v6.61c0,1.5-.4,2.62-1.21,3.37-.81.75-1.99,1.12-3.53,1.12ZM69.65,46.26c.4,0,.75-.1,1.05-.29s.54-.47.71-.82c.17-.36.25-.78.25-1.28,0-.75-.18-1.33-.54-1.75s-.85-.62-1.47-.62c-.42,0-.78.1-1.08.29s-.52.46-.69.81c-.16.35-.25.77-.25,1.27,0,.74.18,1.32.54,1.75s.85.64,1.47.64Z"/>
        <path class="cls-1" d="M29.27,70.45c-.51,0-1.03-.04-1.56-.11s-1.03-.18-1.49-.33c-.46-.14-.88-.33-1.26-.54-.28-.15-.47-.33-.58-.57-.11-.24-.14-.47-.11-.72s.12-.46.26-.64c.14-.19.33-.31.57-.36.24-.05.5,0,.78.14.51.27,1.05.47,1.64.6s1.17.2,1.75.2c.87,0,1.5-.13,1.88-.4.39-.27.58-.6.58-1.01,0-.36-.14-.64-.41-.84-.27-.2-.74-.37-1.4-.5l-2.05-.43c-1.16-.25-2.02-.67-2.57-1.26s-.83-1.36-.83-2.31c0-.6.12-1.16.37-1.66s.6-.93,1.05-1.29c.45-.36,1-.63,1.64-.82.64-.19,1.35-.28,2.12-.28.66,0,1.32.08,1.97.24.65.16,1.23.39,1.74.71.23.14.39.33.48.54.09.22.12.44.09.68s-.12.43-.27.6c-.15.16-.34.27-.57.32-.23.05-.51,0-.83-.16-.39-.21-.81-.35-1.26-.44-.45-.09-.92-.14-1.39-.14-.51,0-.94.07-1.29.2-.36.13-.62.32-.81.55-.18.24-.27.52-.27.84s.12.62.37.83c.25.22.69.39,1.31.53l2.03.43c1.2.25,2.09.66,2.67,1.22.59.56.88,1.3.88,2.22,0,.6-.13,1.15-.38,1.64-.25.49-.61.91-1.06,1.25-.45.34-1,.61-1.63.8s-1.36.28-2.17.28Z"/>
        <path class="cls-1" d="M40.36,70.45c-.95,0-1.78-.19-2.48-.56-.7-.37-1.25-.91-1.64-1.6-.39-.69-.59-1.52-.59-2.47,0-.71.11-1.35.33-1.92.22-.57.53-1.05.95-1.46.42-.4.92-.71,1.5-.92.59-.21,1.23-.32,1.93-.32.95,0,1.79.19,2.49.56s1.26.91,1.65,1.6c.39.7.59,1.51.59,2.46,0,.71-.11,1.36-.33,1.94-.22.58-.54,1.07-.95,1.47-.41.4-.91.7-1.49.92-.58.21-1.23.32-1.96.32ZM40.36,68.42c.4,0,.74-.09,1.03-.28.29-.19.52-.47.69-.86.17-.39.25-.88.25-1.47,0-.88-.18-1.53-.54-1.95s-.84-.62-1.43-.62c-.39,0-.73.09-1.02.27-.3.18-.52.46-.69.85s-.25.87-.25,1.45c0,.89.18,1.55.54,1.97s.83.63,1.41.63Z"/>
        <path class="cls-1" d="M51.03,70.45c-.95,0-1.78-.19-2.48-.56-.7-.37-1.25-.91-1.64-1.6-.39-.69-.59-1.52-.59-2.47,0-.71.11-1.35.33-1.92.22-.57.53-1.05.95-1.46.42-.4.92-.71,1.5-.92.59-.21,1.23-.32,1.93-.32.95,0,1.79.19,2.49.56s1.26.91,1.65,1.6c.39.7.59,1.51.59,2.46,0,.71-.11,1.36-.33,1.94-.22.58-.54,1.07-.95,1.47-.41.4-.91.7-1.49.92-.58.21-1.23.32-1.96.32ZM51.03,68.42c.4,0,.74-.09,1.03-.28.29-.19.52-.47.69-.86.17-.39.25-.88.25-1.47,0-.88-.18-1.53-.54-1.95s-.84-.62-1.43-.62c-.39,0-.73.09-1.02.27-.3.18-.52.46-.69.85s-.25.87-.25,1.45c0,.89.18,1.55.54,1.97s.83.63,1.41.63Z"/>
        <path class="cls-1" d="M58.78,70.41c-.42,0-.75-.12-1-.35-.24-.24-.36-.58-.36-1.02v-6.43c0-.45.12-.79.35-1.02.24-.24.57-.35,1-.35s.75.12.98.35c.23.24.34.58.34,1.02v1.03l-.2-.58c.27-.6.68-1.07,1.23-1.39.56-.32,1.18-.48,1.87-.48.72,0,1.31.14,1.77.41.45.27.79.69,1.02,1.24.23.56.34,1.26.34,2.1v4.09c0,.45-.12.79-.34,1.02-.23.24-.57.35-1.01.35-.42,0-.76-.12-1.01-.35-.25-.24-.37-.58-.37-1.02v-3.99c0-.62-.11-1.06-.33-1.33-.22-.27-.56-.41-1.01-.41-.58,0-1.04.18-1.39.54-.34.36-.52.84-.52,1.45v3.73c0,.92-.46,1.38-1.38,1.38Z"/>
      </g>
    </g>
  </g>
</svg>