<?xml version="1.0" encoding="UTF-8"?>
<svg id="Layer_2" data-name="Layer 2" xmlns="http://www.w3.org/2000/svg" viewBox="0 0 242.57 52">
  <defs>
    <style>
      .cls-1 {
        fill: #fff;
      }
    </style>
  </defs>
  <g id="Elementos">
    <g>
      <g>
        <path class="cls-1" d="M34.33,28.09h0c-.16-1.8-1.29-3.32-2.87-3.87-.87-.3-1.75-.6-2.62-.9.89-1.3,1.79-2.61,2.68-3.92.03-.05.05-.11.05-.17l-.13-12.31c-.01-1.24-.51-2.4-1.37-3.17-.9-.8-1.8-1.6-2.7-2.38l-.39-.34s-.02-.02-.04-.03c-.36-.22-.77-.31-1.21-.26-.02,0-.03,0-.05,0l-.54.16s-.02,0-.03.01c-6.73,1.95-13.74,4.08-21.42,6.49C1.52,8.11-.04,10.23,0,12.47c.01.82.12,1.83.23,2.8.09.83.18,1.62.21,2.29.28,6.31.22,12.42.16,18.32-.04,4.1-.08,8.35,0,12.66,0,.1.06.2.14.25,1.5.93,3.03,1.88,4.67,2.92.31.2.67.3,1.02.3.34,0,.69-.09.99-.28,1.62-.99,3.31-2.05,5.05-3.14,5.76-.13,11.56-.26,17.23-.37.72-.01,1.42-.35,1.91-.92,1.07-1.23,2.13-2.47,3.2-3.72.52-.6.77-1.41.7-2.23-.39-4.43-.79-8.84-1.19-13.26ZM23.2,38.32c-3.57.27-7.25.56-10.94.86l-.42-8.78c3.71-.39,7.45-.77,11.13-1.12l.23,9.04ZM20.12,20.34c-2.85.53-5.77,1.08-8.68,1.63l-.39-8.17c2.82-.44,5.66-.87,8.46-1.28l.61,7.81Z"/>
        <path class="cls-1" d="M59.9,16.38c-2.77-1.2-6.87-2.94-9.74-4.13-.79-.33-1.67-.34-2.48-.05-2.31.84-4.66,1.71-7.19,2.65-.15.05-.23.21-.19.36.59,2.22,1.19,4.44,1.78,6.67.04.16.21.26.37.21,3-.78,5.94-1.52,8.73-2.22l.61,6.61c-3.39.44-6.94.92-10.56,1.42-1.94.27-3.36,2.13-3.25,4.23.02.32.1,1.05.18,1.83.08.73.17,1.49.18,1.8.09,1.59.11,2.76.13,3.89.01.78.03,1.58.06,2.52.02.42.2.82.51,1.1.9.82,1.48,1.36,2.37,2.18.29.27.67.42,1.06.42.07,0,.14,0,.21-.01l1.62-.22c3.49-.47,6.98-.94,10.47-1.4,1.18.4,2.37.81,3.55,1.21.35.12.73.08,1.05-.11l2.18-1.32c.09-.05.14-.15.15-.25l.31-23.87c.02-1.53-.83-2.94-2.12-3.49ZM47.46,32.07c1.57-.24,3.15-.47,4.72-.7l.64,8.79c-1.27-.48-2.54-.95-3.82-1.43-.52-2.22-1.03-4.44-1.55-6.66Z"/>
        <path class="cls-1" d="M101.24,37.26h0c-1.43.07-2.85.14-4.28.22l-.22-16.76c2.39-.38,4.38-.69,6.23-.97.15-.02.26-.15.26-.3v-6.65c0-.09-.03-.17-.1-.23s-.16-.08-.24-.07c-1.85.3-3.84.65-6.24,1.08l-.06-4.77c0-.11-.06-.21-.16-.26-.73-.41-1.46-.81-2.2-1.22-.1-.05-.22-.05-.31.01-3.32,2.22-4.33,2.9-7.57,5.13-.08.06-.13.15-.13.25,0,.95,0,1.87.07,2.81-3.23.64-6.55,1.32-9.9,2.04l-.09-6.19c0-.1-.06-.2-.15-.25-.94-.57-1.89-1.13-2.83-1.7-.1-.06-.22-.06-.32,0-2.48,1.58-3.21,2.05-5.69,3.64-.08.05-.13.14-.14.24-.02.42-.04.84-.05,1.26-.04.94-.09,1.9-.1,2.86-.01.77-.03,1.5-.04,2.2l-.45.1c-.79.18-1.57.36-2.36.54-.14.03-.23.15-.23.29v5.83c0,.09.04.18.11.23.07.06.16.08.25.06.72-.15,1.44-.29,2.15-.43l.37-.07c-.14,4.69-.29,7.45-.44,10.12-.11,2.01-.23,4.09-.34,6.97,0,.1.04.19.12.25,1.64,1.22,3.29,2.44,4.93,3.66.29.22.63.33.98.33.13,0,.27-.02.4-.05,1.37-.35,2.73-.7,4.1-1.05,2.42-.62,4.84-1.24,7.26-1.85.13-.03.23-.15.23-.29v-4.52c0-.76-.3-1.48-.82-1.97-.46-.44-1.06-.65-1.66-.61-1.63.11-3.27.22-4.9.33l-.19-13.19c3.47-.66,6.88-1.29,10.14-1.87.14,4.37.13,8.41.12,12.31,0,2.92-.02,5.95.04,9.09,0,.1.05.18.13.24,1.4,1,2.81,1.99,4.21,2.99.4.29.9.38,1.37.27,1.44-.35,2.89-.69,4.33-1.03,2.26-.54,4.51-1.06,6.77-1.59.14-.03.23-.15.23-.29v-4.45c0-.78-.3-1.52-.84-2.03-.49-.47-1.12-.7-1.76-.67Z"/>
        <path class="cls-1" d="M116.81,1.01c0-.16-.12-.29-.27-.3-2.62-.26-5.28-.5-7.91-.71-.06,0-.13.01-.18.04-.59.35-1.18.71-1.77,1.07-.09.06-.15.15-.14.26,0,.62.03,1.3.05,1.96.02.66.05,1.34.05,1.95.05,6.49.08,13.02.1,19.34.03,6.3.06,12.81.1,19.27,0,.1.05.2.14.25.97.61,1.95,1.21,2.92,1.81.05.03.1.05.16.05.03,0,.06,0,.09-.01,2.15-.66,4.15-1.27,6.11-1.86.13-.04.21-.15.21-.29.03-4.16.02-9.1,0-13.88-.03-9.57-.06-19.47.28-23.57.1-1.2.08-2.42.06-3.6,0-.58-.02-1.19-.02-1.78Z"/>
        <path class="cls-1" d="M141.87,19.78c-.1-1.88-1.51-3.59-3.35-4.07-1.07-.28-2.14-.55-3.21-.83-1.21-.31-2.43-.25-3.53.17-1.55.59-3.15,1.21-4.75,1.85-1.6.64-3.25,1.31-4.9,1.99-1.8.75-2.93,2.59-2.9,4.69l.03,2.02c.25,4.08.25,8.03.25,11.84,0,1.91,0,3.88.03,5.85,0,.11.07.22.17.27,2.29,1.09,4.41,2.08,6.49,3.04.04.02.08.03.13.03.02,0,.05,0,.07,0,1.04-.25,2.08-.49,3.12-.74,3.91-.91,7.73-1.77,11.36-2.54.15-.03.26-.18.24-.33l-.34-2.83c-.19-1.6-1.58-2.8-3.17-2.73h0c-2.75.12-5.6.26-8.48.41l-.25-3.04c4.6-1.69,9.08-3.25,13.33-4.63.13-.04.22-.17.21-.3-.18-3.37-.37-6.74-.55-10.12ZM127.88,22.48c1.45-.23,2.9-.45,4.33-.67.2,1.73.4,3.45.6,5.17-1.41.99-2.86,2.02-4.32,3.07l-.62-7.57Z"/>
      </g>
      <g>
        <path class="cls-1" d="M171.6,1.56c-.11-.1-.27-.14-.41-.12-4.62.59-9.37,1.27-14.12,2.01-2.28.36-4.62.74-6.96,1.13-.92.16-1.8.5-2.61,1.03l-.41.27c-.71.46-1.14,1.25-1.13,2.04-.06,1.7-.08,3.42-.05,5.11.07,4.65.15,6.61.3,10.25.15,3.82.16,4.19.02,9.74-.09,3.92-.04,7.95.14,11.97,0,.1.07.2.16.24,1.1.53,2.2,1.07,3.3,1.61.04.02.08.03.12.03.02,0,.05,0,.07,0,2.2-.57,4.46-1.16,6.9-1.8.12-.03.21-.14.21-.27l.1-15.49c4.41-.29,8.83-.56,13.12-.8.15,0,.27-.14.27-.29l-.28-7.75c0-.08-.04-.15-.09-.2-.06-.05-.14-.08-.21-.07-4.22.26-8.5.56-12.75.89l.06-9.09c4.84-.48,9.72-.9,14.5-1.26.15-.01.27-.14.26-.29l-.31-8.45c0-.16-.07-.3-.19-.4Z"/>
        <path class="cls-1" d="M185.19,1.18c0-.08-.03-.15-.08-.2s-.13-.08-.2-.08c-2.63.06-5.29.14-7.91.25-.05,0-.11.02-.15.05-.59.41-1.18.83-1.77,1.24-.08.05-.12.14-.12.23,0,.6.03,1.25.05,1.89.02.63.05,1.29.05,1.88.06,6.26.1,12.56.14,18.66.04,6.1.08,12.4.14,18.66,0,.1.05.19.14.24.97.57,1.95,1.15,2.92,1.72.04.03.09.04.14.04.03,0,.06,0,.08-.01,2.04-.63,4.08-1.27,6.11-1.91.12-.04.2-.14.2-.27.02-4.12,0-9.01-.02-13.74-.05-9.46-.09-19.24.23-23.33.1-1.19.07-2.4.05-3.57-.01-.58-.02-1.18-.02-1.76Z"/>
        <path class="cls-1" d="M240.68,16.88c-1.25-.67-2.5-1.35-3.75-2.03-.72-.39-1.56-.35-2.19.08-1.22.84-2.48,1.73-3.75,2.62-1.83,1.3-3.72,2.66-5.63,4.05l.08-5.22c0-.09-.04-.18-.12-.23l-1.8-1.27c-.07-.05-.15-.06-.23-.04-2.39.58-4.87,1.2-7.37,1.85-.59.15-1.01.71-1.02,1.34,0,.48-.02.97-.03,1.45-.03.97-.05,1.97-.02,2.96.28,7.97.11,11.77-.06,15.44-.08,1.84-.17,3.75-.2,6.15,0,.1.06.2.15.25.87.46,1.73.93,2.6,1.39.04.02.09.03.13.03.02,0,.04,0,.06,0,2.42-.49,4.85-.98,7.27-1.47.13-.03.22-.14.23-.27l.24-16.07c1.83-.51,3.65-1.01,5.41-1.48l-.41,18.55c0,.15.11.28.27.29,2.62.14,5.23.28,7.85.41.13,0,.27-.1.29-.24,1.3-8.52,2.6-16.91,3.85-24.95.22-1.42-.54-2.9-1.85-3.6Z"/>
        <path class="cls-1" d="M209.92,17.87c-2.79-1.32-6.84-3.22-9.64-4.52-.78-.36-1.65-.43-2.47-.2-2.31.66-4.75,1.37-7.24,2.12-.15.05-.25.21-.21.36l1.64,6.57c.04.16.19.25.35.22,3.01-.59,5.96-1.16,8.78-1.68l.47,6.34c-3.45.27-7.01.57-10.57.89-1.95.17-3.41,1.92-3.34,3.99.01.31.08,1.03.15,1.79.07.72.13,1.45.15,1.75.05,1.55.05,2.69.05,3.79,0,.9,0,1.83.02,2.97,0,.08.04.16.1.21,1.27,1.19,1.87,1.75,3.14,2.95.06.05.13.08.21.08.01,0,.02,0,.03,0,3.89-.4,7.77-.81,11.66-1.21l1.05-.11c1.17.41,2.35.83,3.52,1.24.34.12.72.09,1.04-.09.74-.4,1.47-.8,2.21-1.2.09-.05.15-.15.16-.26l.79-22.59c.05-1.48-.75-2.82-2.04-3.43ZM197.24,32.34c1.57-.19,3.15-.38,4.72-.57l.62,8.41-3.81-1.42-1.53-6.42Z"/>
      </g>
    </g>
  </g>
</svg>