<?xml version="1.0" encoding="UTF-8"?>
<svg id="Layer_2" data-name="Layer 2" xmlns="http://www.w3.org/2000/svg" viewBox="0 0 55.12 97.51">
  <defs>
    <style>
      .cls-1 {
        fill: #fff;
      }
    </style>
  </defs>
  <g id="Elementos">
    <g>
      <g>
        <g>
          <path class="cls-1" d="M13.29,71.19h0c-.06-.7-.5-1.29-1.11-1.5-.34-.12-.68-.23-1.01-.35.35-.5.69-1.01,1.04-1.52.01-.02.02-.04.02-.07l-.05-4.76c0-.48-.2-.93-.53-1.23-.35-.31-.7-.62-1.04-.92l-.15-.13s0,0-.01-.01c-.14-.09-.3-.12-.47-.1,0,0-.01,0-.02,0l-.21.06s0,0-.01,0c-2.6.76-5.32,1.58-8.29,2.51-.85.27-1.45,1.09-1.44,1.96,0,.32.05.71.09,1.08.04.32.07.63.08.89.11,2.44.08,4.81.06,7.09-.02,1.59-.03,3.23,0,4.9,0,.04.02.08.06.1.58.36,1.17.73,1.81,1.13.12.08.26.12.4.12.13,0,.27-.04.38-.11.63-.38,1.28-.79,1.95-1.21,2.23-.05,4.47-.1,6.67-.14.28,0,.55-.14.74-.36.41-.48.83-.96,1.24-1.44.2-.23.3-.55.27-.86-.15-1.71-.31-3.42-.46-5.13ZM8.98,75.15c-1.38.11-2.81.22-4.23.33l-.16-3.4c1.44-.15,2.89-.3,4.31-.43l.09,3.5ZM7.79,68.19c-1.1.2-2.23.42-3.36.63l-.15-3.16c1.09-.17,2.19-.34,3.27-.5l.24,3.02Z"/>
          <path class="cls-1" d="M23.18,66.66c-1.07-.47-2.66-1.14-3.77-1.6-.3-.13-.65-.13-.96-.02-.89.33-1.8.66-2.78,1.03-.06.02-.09.08-.07.14.23.86.46,1.72.69,2.58.02.06.08.1.14.08,1.16-.3,2.3-.59,3.38-.86l.24,2.56c-1.31.17-2.69.36-4.09.55-.75.11-1.3.82-1.26,1.64,0,.12.04.41.07.71.03.28.06.58.07.7.03.61.04,1.07.05,1.5,0,.3.01.61.03.97,0,.16.08.32.2.43.35.32.57.53.92.84.11.1.26.16.41.16.03,0,.05,0,.08,0l.63-.08c1.35-.18,2.7-.36,4.05-.54.46.16.92.31,1.37.47.13.05.28.03.41-.04l.84-.51s.06-.06.06-.1l.12-9.24c0-.59-.32-1.14-.82-1.35ZM18.37,72.73c.61-.09,1.22-.18,1.83-.27l.25,3.4c-.49-.19-.98-.37-1.48-.55-.2-.86-.4-1.72-.6-2.58Z"/>
          <path class="cls-1" d="M39.19,74.74h0c-.55.03-1.1.06-1.66.08l-.08-6.49c.93-.15,1.69-.27,2.41-.38.06,0,.1-.06.1-.12v-2.57s-.01-.07-.04-.09-.06-.03-.09-.03c-.72.12-1.49.25-2.41.42l-.02-1.85s-.02-.08-.06-.1c-.28-.16-.57-.31-.85-.47-.04-.02-.08-.02-.12,0-1.28.86-1.67,1.12-2.93,1.98-.03.02-.05.06-.05.1,0,.37,0,.72.03,1.09-1.25.25-2.54.51-3.83.79l-.03-2.39s-.02-.08-.06-.1c-.37-.22-.73-.44-1.1-.66-.04-.02-.09-.02-.12,0-.96.61-1.24.79-2.2,1.41-.03.02-.05.06-.05.09,0,.16-.01.33-.02.49-.02.36-.03.74-.04,1.11,0,.3-.01.58-.02.85l-.17.04c-.3.07-.61.14-.91.21-.05.01-.09.06-.09.11v2.26s.02.07.04.09c.03.02.06.03.1.02.28-.06.56-.11.83-.17l.14-.03c-.05,1.81-.11,2.88-.17,3.92-.04.78-.09,1.58-.13,2.7,0,.04.02.08.05.1.64.47,1.27.94,1.91,1.42.11.08.24.13.38.13.05,0,.1,0,.15-.02.53-.14,1.06-.27,1.59-.41.94-.24,1.87-.48,2.81-.72.05-.01.09-.06.09-.11v-1.75c0-.29-.12-.57-.32-.76-.18-.17-.41-.25-.64-.24-.63.04-1.26.08-1.9.13l-.07-5.11c1.34-.26,2.66-.5,3.93-.72.05,1.69.05,3.25.05,4.77,0,1.13,0,2.3.02,3.52,0,.04.02.07.05.09.54.39,1.09.77,1.63,1.16.16.11.35.15.53.11.56-.13,1.12-.27,1.68-.4.87-.21,1.75-.41,2.62-.61.05-.01.09-.06.09-.11v-1.72c0-.3-.12-.59-.33-.79-.19-.18-.43-.27-.68-.26Z"/>
          <path class="cls-1" d="M45.21,60.71c0-.06-.05-.11-.11-.12-1.01-.1-2.04-.19-3.06-.27-.02,0-.05,0-.07.02-.23.14-.46.28-.69.41-.04.02-.06.06-.06.1,0,.24.01.5.02.76,0,.25.02.52.02.75.02,2.51.03,5.04.04,7.49.01,2.44.02,4.96.04,7.46,0,.04.02.08.06.1.38.23.75.47,1.13.7.02.01.04.02.06.02.01,0,.02,0,.03,0,.83-.26,1.61-.49,2.37-.72.05-.01.08-.06.08-.11.01-1.61,0-3.52,0-5.37-.01-3.7-.02-7.53.11-9.12.04-.46.03-.94.02-1.39,0-.23,0-.46,0-.69Z"/>
          <path class="cls-1" d="M54.91,67.97c-.04-.73-.58-1.39-1.3-1.57-.41-.11-.83-.21-1.24-.32-.47-.12-.94-.1-1.37.06-.6.23-1.22.47-1.84.71-.62.25-1.26.51-1.9.77-.7.29-1.14,1-1.12,1.82v.78c.11,1.58.11,3.11.11,4.58,0,.74,0,1.5.01,2.26,0,.04.03.08.07.1.89.42,1.71.81,2.51,1.18.02,0,.03.01.05.01,0,0,.02,0,.03,0,.4-.1.81-.19,1.21-.29,1.51-.35,2.99-.68,4.4-.98.06-.01.1-.07.09-.13l-.13-1.09c-.08-.62-.61-1.08-1.23-1.06h0c-1.07.05-2.17.1-3.28.16l-.1-1.18c1.78-.65,3.51-1.26,5.16-1.79.05-.02.08-.06.08-.12-.07-1.3-.14-2.61-.21-3.92ZM49.49,69.02c.56-.09,1.12-.18,1.68-.26.08.67.16,1.34.23,2-.55.38-1.11.78-1.67,1.19l-.24-2.93Z"/>
        </g>
        <g>
          <path class="cls-1" d="M18.8,79.97s-.1-.05-.16-.05c-1.79.23-3.63.49-5.47.78-.88.14-1.79.29-2.69.44-.36.06-.7.19-1.01.4l-.16.1c-.27.18-.44.48-.44.79-.02.66-.03,1.32-.02,1.98.03,1.8.06,2.56.11,3.97.06,1.48.06,1.62,0,3.77-.04,1.52-.02,3.08.06,4.63,0,.04.03.08.06.09.43.21.85.41,1.28.62.02,0,.03.01.05.01,0,0,.02,0,.03,0,.85-.22,1.73-.45,2.67-.7.05-.01.08-.06.08-.11l.04-6c1.71-.11,3.42-.22,5.08-.31.06,0,.11-.05.1-.11l-.11-3s-.01-.06-.04-.08c-.02-.02-.05-.03-.08-.03-1.63.1-3.29.22-4.94.34l.02-3.52c1.87-.19,3.76-.35,5.61-.49.06,0,.1-.05.1-.11l-.12-3.27c0-.06-.03-.12-.07-.16Z"/>
          <path class="cls-1" d="M24.06,79.82s-.01-.06-.03-.08-.05-.03-.08-.03c-1.02.02-2.05.06-3.06.1-.02,0-.04,0-.06.02-.23.16-.46.32-.68.48-.03.02-.05.05-.05.09,0,.23.01.49.02.73,0,.24.02.5.02.73.02,2.42.04,4.86.06,7.22.02,2.36.03,4.8.06,7.22,0,.04.02.07.05.09.38.22.75.44,1.13.67.02.01.04.02.06.02.01,0,.02,0,.03,0,.79-.24,1.58-.49,2.37-.74.05-.01.08-.06.08-.1,0-1.59,0-3.49,0-5.32-.02-3.66-.04-7.45.09-9.03.04-.46.03-.93.02-1.38,0-.22,0-.46,0-.68Z"/>
          <path class="cls-1" d="M45.54,85.9c-.48-.26-.97-.52-1.45-.78-.28-.15-.6-.14-.85.03-.47.33-.96.67-1.45,1.01-.71.5-1.44,1.03-2.18,1.57l.03-2.02s-.02-.07-.05-.09l-.7-.49s-.06-.02-.09-.02c-.93.22-1.89.46-2.85.71-.23.06-.39.27-.39.52,0,.19,0,.38-.01.56-.01.38-.02.76,0,1.15.11,3.09.04,4.55-.02,5.98-.03.71-.07,1.45-.08,2.38,0,.04.02.08.06.1.34.18.67.36,1.01.54.02,0,.03.01.05.01,0,0,.01,0,.02,0,.94-.19,1.88-.38,2.81-.57.05-.01.09-.05.09-.11l.09-6.22c.71-.2,1.41-.39,2.1-.57l-.16,7.18c0,.06.04.11.1.11,1.01.05,2.02.11,3.04.16.05,0,.1-.04.11-.09.5-3.3,1.01-6.54,1.49-9.66.09-.55-.21-1.12-.72-1.4Z"/>
          <path class="cls-1" d="M33.64,86.28c-1.08-.51-2.65-1.25-3.73-1.75-.3-.14-.64-.17-.96-.08-.89.26-1.84.53-2.8.82-.06.02-.09.08-.08.14l.64,2.54c.01.06.07.1.14.09,1.17-.23,2.31-.45,3.4-.65l.18,2.45c-1.34.11-2.71.22-4.09.34-.75.07-1.32.74-1.29,1.54,0,.12.03.4.06.69.03.28.05.56.06.68.02.6.02,1.04.02,1.47,0,.35,0,.71,0,1.15,0,.03.01.06.04.08.49.46.72.68,1.21,1.14.02.02.05.03.08.03,0,0,0,0,.01,0,1.5-.16,3.01-.31,4.51-.47l.41-.04c.45.16.91.32,1.36.48.13.05.28.03.4-.03.28-.15.57-.31.85-.46.04-.02.06-.06.06-.1l.31-8.74c.02-.57-.29-1.09-.79-1.33ZM28.73,91.88c.61-.07,1.22-.15,1.83-.22l.24,3.25-1.48-.55-.59-2.48Z"/>
        </g>
      </g>
      <g>
        <path class="cls-1" d="M43.86,29.25c-.05-4.73-1.68-10.8-2.83-14.53-.57.96-1.26,1.64-1.56,1.92-.66.61-1.24.92-1.66,1.15q-.41.22-.48.37c-.15.29-.22.51-.3.73-.16.46-.38,1.09-1.04,1.65-.59.49-1.36.77-2.13.77-.15,0-.3-.01-.45-.03-.71-.1-1.22-.44-1.56-.73-.03.22-.04.51-.05.72-.04,1.01-.1,2.54-1.32,3.72-.91.89-1.82,1.07-2.44,1.07-.06,0-.17,0-.3-.01-.62-.06-1.21-.32-1.71-.71-.02.95-.2,1.96-.83,2.87-.84,1.22-2.29,1.92-3.97,1.92-.3,0-.6-.02-.88-.07h-.01s0,0,0,0c-1.78-.31-3.11-1.26-3.64-2.63-.19-.49-.26-.97-.25-1.44-.36.08-.74.12-1.12.12-.1,0-.19,0-.29-.01-.5,1.24-1.03,2.35-1.58,3.31-.43.76-.89,1.42-1.35,2-.21.26-.3.58-.26.9.05.34.24.64.54.86,3.24,2.3,6.81,4.14,10.62,5.45,3.98,1.37,8.15,2.15,12.4,2.32.07,0,.14,0,.21,0,.45,0,.8-.06,1-.1h.06c.5-.1,1.82-.39,3.08-1.29.15-.11.32-.24.5-.4.48-.41,1.04-1.03,1.64-2.07.03-.04.05-.09.08-.14.03-.06.07-.12.11-.2.04-.07.07-.14.11-.21.03-.05.05-.09.07-.14.04-.07.07-.15.11-.22.03-.05.05-.11.08-.16.02-.04.2-.46.21-.46.2-.45.36-.91.5-1.37h0s-.01,0-.01,0c-.21.12-.44.2-.69.23-.08.01-.16.01-.24.01-1.03,0-1.94-.87-2.1-2.05-.16-1.27.61-2.42,1.74-2.56.08-.01.16-.02.23-.02.68,0,1.31.38,1.7.98,0,0,.01.01.01.02.04-.53.04-1.58.03-1.58ZM33.28,34.96c-.7.79-1.66,1.2-2.61,1.2-.77,0-1.52-.26-2.13-.8-1.37-1.2-1.46-3.33-.2-4.75.69-.79,1.66-1.2,2.61-1.2.76,0,1.52.26,2.13.79,1.37,1.2,1.46,3.33.2,4.75ZM39.59,34.67c-.01.06-.03.12-.05.18,0,0,0,.01,0,.02,0,.03-.02.05-.03.08,0,.01,0,.03-.01.04,0,.01,0,.03-.01.04,0,.01,0,.02-.01.03-.01.03-.02.05-.03.08-.02.04-.04.09-.06.13-.02.04-.04.08-.06.11-.02.04-.04.08-.07.11-.03.05-.07.11-.11.16-.07.09-.14.17-.21.25-.01.02-.03.03-.05.05-.01.02-.03.03-.05.04-.05.05-.1.09-.15.13-.05.04-.1.08-.15.11-.03.02-.05.03-.08.05-.03.02-.05.03-.08.04-.03.01-.05.03-.08.04-.05.03-.1.05-.16.07-.03.01-.06.03-.1.04,0,0-.01,0-.02,0-.04.01-.08.02-.12.03,0,0-.02,0-.03,0-.05.01-.09.02-.14.02-.05,0-.1,0-.14,0-.11,0-.22-.01-.33-.05-.57-.17-1.01-.87-1.09-1.72-.01-.13.1-.24.23-.22.43.04.93.07,1.47.05.55-.02,1.05-.08,1.48-.16.01,0,.03,0,.04,0,.07,0,.13.04.16.09,0,.01.01.02.02.03,0,.01.01.02.01.04h0s0,.03,0,.04c0,.02,0,.03,0,.05Z"/>
        <path class="cls-1" d="M31.22,8.09s.01.04.02.06c0,.02.01.04.02.06-.01-.04-.03-.08-.04-.11ZM35.52,14.59h-.01s0,0,.01,0c.01,0,.02,0,.04-.01-.01,0-.03,0-.04,0Z"/>
        <g>
          <path class="cls-1" d="M30.68,7.15s-.03-.04-.05-.06c.01.01.03.03.04.05,0,0,0,0,0,.01Z"/>
          <path class="cls-1" d="M30.71,7.18s-.02-.02-.03-.03h0s.02.02.03.03Z"/>
          <path class="cls-1" d="M30.79,7.29s0-.01-.01-.02h0s0,.01.01.02Z"/>
          <path class="cls-1" d="M31.16,7.93c-.02-.05-.05-.1-.07-.15,0,.01.01.02.02.03.01.03.03.05.04.07,0,.02.01.03.02.05Z"/>
          <path class="cls-1" d="M31.27,8.2s-.01-.04-.02-.06c0-.02-.01-.04-.02-.06.02.04.03.07.04.11Z"/>
        </g>
        <path class="cls-1" d="M43.18,34.21h0s-.01,0-.01.01c0,0,.01,0,.01-.01Z"/>
        <path class="cls-1" d="M54.95,26.56h0s-.95.08-2.12.17c0-.21.01-.42.02-.63,0,0,0,0,0,0,.11-1.69.17-3.51.15-5.45-.02-2.2-.15-4.25-.33-6.12,0-.14-.02-.4-.16-.69-.1-.21-.24-.4-.42-.55l-3.57-2.97c-.22-.18-.55-.09-.65.19l-1.66,4.7c-.12.33-.13.69-.03,1.03.58,1.52,1.14,3.17,1.67,4.93.61,2.03,1.09,3.97,1.48,5.77-.63.03-1.25.05-1.87.06-.14,0-.23.15-.16.27.07.13.14.27.21.41.04.09.08.17.13.26.07.15.23.25.4.25.06,0,.12,0,.18,0,.11.32.23.66.33,1.01.09.31.18.61.25.91.04.15.18.26.34.24.18-.01.37-.03.55-.05.01.42.01.82,0,1.21-.17.1-.33.22-.46.4-.24.34-.28.71-.29.83,0,.11-.04.6.25,1.04.45.71,1.33.78,1.66.81.27.02,1.32.12,1.89-.6.28-.35.32-.76.34-.87.02-.16.04-.59-.2-1-.1-.17-.23-.31-.37-.42.02-.22.04-.43.06-.65.03-.37.06-.74.08-1.1.36-.06.72-.11,1.06-.17.13-.02.23-.12.26-.25.05-.23.1-.48.14-.73.06-.33.1-.65.13-.96.08,0,.16-.01.24-.02.15-.02.29-.11.35-.25.04-.08.07-.17.1-.26.07-.18.17-.53.17-.55,0,0,0-.02,0-.03,0-.1-.08-.18-.17-.18Z"/>
        <path class="cls-1" d="M40.02,10.85c-.21-1.15-.91-2.21-1.62-2.78-.68-.55-1.5-.79-2.42-.79-.87,0-1.82.21-2.84.56-.36-1.21-1.07-2.25-2.06-2.94-.12-.08-.24-.16-.37-.23-.17-1.06-.69-2.11-1.51-2.97-.5-.53-1.08-.95-1.69-1.23-.26-.12-.53-.21-.82-.29-.14-.04-.28-.06-.42-.09-.07-.01-.14-.02-.21-.03-.08-.01-.16-.02-.24-.03-.08,0-.15-.01-.23-.02-.09,0-.18,0-.27-.01-.03,0-.06,0-.08,0-.08,0-.16,0-.24,0-.1,0-.2,0-.3.01-.07,0-.14,0-.2.01-.14.01-.28.03-.42.05-.06,0-.13.02-.19.03-.11.02-.22.04-.33.06-.06.01-.11.02-.17.04-.15.04-.3.08-.46.12-.05.01-.1.03-.15.05-.17.05-.33.11-.49.17-.16.06-.32.13-.48.2-.16.07-.32.15-.48.23s-.32.17-.47.27c-.54.33-1.07.72-1.56,1.19-.07.06-.14.13-.21.2-.42.41-.8.88-1.16,1.39-.64.94-.62,2.12.05,3.01.09.12.18.23.29.34.18.18.38.35.61.5.19.13.41.19.63.19.19,0,.37-.04.54-.13.34-.18.54-.51.55-.87.02-1.27.43-2.46,1.2-3.42.44-.56.91-.96,1.57-1.35.2-.12.45-.26.74-.4.1-.04.2-.09.3-.13.42-.17.92-.29,1.48-.29.14,0,.27,0,.42.02.97.11,1.71.57,2.16.95.48.52.84,1.11,1.05,1.72-.49-.14-1-.21-1.52-.21-2.25,0-4.57,1.31-6.05,3.43-1.06,1.52-1.61,3.29-1.52,4.99.03.66.16,1.29.38,1.88-.68.31-1.33.55-1.94.72,0,0-2.78.78-3.64,2.49-.15.31-.26.61-.26.61-.15.59.01,1.02-.33,1.84-.47,1.12-1.06,1.16-1.19,2.11-.02.12-.12.83.19,1.39.03.04.05.09.08.13.33.46.96.68,1.63.68.83,0,1.72-.33,2.22-.96.16-.2.28-.44.4-.66.18-.33.36-.62.7-.69.01,0,.09-.02.18-.02.15,0,.35.03.48.18,0,0,.01.02.02.03.56.75-1.52,2.97-.88,4.64.45,1.15,1.94,1.4,2.21,1.45.18.03.37.05.58.05.85,0,1.86-.29,2.42-1.11,1.16-1.68-.22-4.6.82-5.65.41-.42.89-.43.93-.43h.02c.1,0,.61.02.92.4.38.48-.01.94.29,1.67.22.52.73,1,1.29,1.05.03,0,.07,0,.1,0,.57,0,1.01-.43,1.12-.54,1.36-1.32.17-3.56,1.46-4.75.03-.03.61-.52,1.25-.52.1,0,.2.01.29.04.67.18.78.9,1.51,1,.06,0,.12.01.18.01.33,0,.68-.13.92-.33.45-.39.38-.81.88-1.8.58-1.15,1.37-.98,2.55-2.06.22-.2,1.78-1.66,1.88-3.49.02-.3,0-.6-.06-.9ZM31.51,9.97c0,.09-.01.17-.02.26-.02.2-.05.4-.1.6-.18.85-.56,1.71-1.15,2.5-1.18,1.58-2.88,2.47-4.42,2.47-.76,0-1.48-.21-2.09-.66-.43-.32-.76-.72-.99-1.19-.09-.17-.16-.36-.22-.54-.07-.22-.12-.44-.16-.67-.21-1.37.2-2.97,1.22-4.35,1.18-1.58,2.88-2.47,4.42-2.47.07,0,.14,0,.21,0h.01c.06,0,.11,0,.17.01.06,0,.11.01.17.02.05,0,.09.01.13.02.05,0,.1.02.15.03.07.02.14.03.2.05.06.02.13.04.19.06.01,0,.02,0,.03.01.06.02.11.04.17.07.06.03.12.05.18.08,0,0,.01,0,.01,0-.15.6-.47,1.17-.94,1.7-.19.22-.17.55.04.74.1.09.22.13.35.13.14,0,.29-.06.39-.18.48-.54.82-1.11,1.04-1.72.04.04.08.09.12.13.01.01.03.03.04.05,0,0,0,0,.01.01,0,.01.02.02.03.03.02.02.03.04.04.06.01.01.02.02.03.03,0,0,0,.01.01.02.01.01.02.03.03.05.07.09.13.19.18.29.03.05.05.1.08.15,0,.01.01.02.02.03.01.03.03.05.04.07,0,.02.01.03.02.05.02.05.04.1.06.15,0,0,0,0,0,0,.02.04.03.07.04.11,0,.01,0,.02.01.03,0,.03.02.05.03.08s.02.05.03.08c.02.05.03.11.05.17h0s0,.03.01.04c.01.06.03.12.04.17.01.06.02.12.03.18.01.05.02.11.02.16s.01.11.02.16c0,.07.01.15.01.22,0,.07,0,.14,0,.21,0,.09,0,.19,0,.28ZM35.42,14.78c-.08.04-.17-.05-.11-.13.49-.66,1.15-1.76,1.44-3.27.06-.32.1-.62.12-.91h0c.02-.19.13-.36.31-.42.11-.04.24-.05.37-.04.17.02.32.08.43.17.09.07.14.18.16.29,0,.02,0,.04,0,.05.21,1.52-.83,3.26-2.73,4.24Z"/>
        <path class="cls-1" d="M45.08,44.91c-.96,2.74-10.93,1.76-22.26-2.2-11.34-3.96-19.75-9.39-18.8-12.13.46-1.33,3.06-1.79,6.91-1.44-.2.29-.4.56-.6.81-.61.75-.88,1.69-.75,2.64v.02s0,.02,0,.02c.14.96.67,1.81,1.48,2.39,3.42,2.43,7.19,4.37,11.21,5.75,4.19,1.44,8.57,2.26,13.04,2.45.11,0,.22,0,.32,0,.61,0,1.09-.08,1.41-.13h.04c.83-.15,2.45-.55,4.03-1.67.24-.17.47-.35.68-.54.11-.1.23-.2.34-.31,2.21,1.7,3.34,3.23,2.96,4.33Z"/>
        <path class="cls-1" d="M48.8,46.84c-.34.98-1.32,2.75-3.99,3.62-1.2.39-2.62.58-4.36.58-.74,0-1.55-.04-2.42-.11l-1.58,1.21c-.74.57-1.63.87-2.55.87-.18,0-.37-.01-.55-.04-4.29-.56-9.1-1.79-13.89-3.54-4.2-1.53-8.22-3.42-11.63-5.45-1.07-.64-1.83-1.72-2.09-2.98l-.35-1.73c-1.43-1.02-2.58-2.02-3.41-2.97-.73-.84-1.25-1.67-1.58-2.52-.63-1.65-.41-3.01-.11-3.86.34-.98,1.31-2.75,3.99-3.62,1.19-.39,2.62-.58,4.36-.58,1.18,0,2.51.09,3.96.27-.29.68-.6,1.31-.92,1.88-1.11-.12-2.13-.18-3.05-.18-1.54,0-2.77.16-3.75.48-1.77.57-2.46,1.62-2.74,2.39-.19.54-.33,1.42.09,2.5.24.64.64,1.27,1.22,1.93.95,1.1,2.39,2.26,4.27,3.48,3.68,2.37,8.8,4.76,14.43,6.72,3.47,1.21,6.97,2.19,10.13,2.86,3.13.66,5.95,1,8.16,1,1.53,0,2.76-.16,3.75-.48,1.77-.57,2.46-1.62,2.74-2.39.19-.54.33-1.42-.09-2.5-.24-.64-.64-1.27-1.22-1.93-.63-.73-1.48-1.49-2.53-2.27.31-.41.61-.87.9-1.38.05-.09.11-.19.16-.29,1.22.9,2.21,1.79,2.96,2.65.73.84,1.25,1.67,1.58,2.52.63,1.65.41,3.01.11,3.86Z"/>
      </g>
    </g>
  </g>
</svg>