<?xml version="1.0" encoding="UTF-8"?>
<svg id="Layer_2" data-name="Layer 2" xmlns="http://www.w3.org/2000/svg" viewBox="0 0 207.37 88.65">
  <defs>
    <style>
      .cls-1 {
        fill: #fff;
      }

      .cls-2 {
        fill: #fbca68;
      }

      .cls-3 {
        fill: #e35e30;
      }

      .cls-4 {
        fill: #321334;
      }
    </style>
  </defs>
  <g id="Elementos">
    <g>
      <g>
        <path class="cls-2" d="M73.36,48.91c-.09-7.92-2.81-18.07-4.74-24.31-.96,1.61-2.1,2.74-2.61,3.21-1.1,1.02-2.07,1.54-2.77,1.93q-.68.37-.8.62c-.24.49-.37.85-.5,1.23-.27.77-.64,1.82-1.74,2.77-.98.82-2.28,1.29-3.56,1.29-.25,0-.5-.02-.74-.05-1.2-.17-2.04-.73-2.6-1.23-.05.37-.06.86-.08,1.2-.06,1.69-.16,4.24-2.2,6.23-1.51,1.48-3.05,1.79-4.07,1.79-.1,0-.28,0-.5-.02-1.03-.1-2.02-.53-2.86-1.19-.04,1.59-.34,3.28-1.38,4.79-1.41,2.04-3.83,3.21-6.64,3.21-.5,0-1-.04-1.48-.12h-.02s-.01,0-.01,0c-2.98-.51-5.2-2.12-6.08-4.39-.31-.81-.43-1.63-.42-2.42-.61.14-1.23.21-1.87.21-.16,0-.33,0-.49-.02-.83,2.07-1.72,3.92-2.65,5.53-.73,1.27-1.49,2.38-2.27,3.35-.35.44-.51.97-.44,1.51.08.57.4,1.08.91,1.44,5.42,3.85,11.39,6.92,17.76,9.12,6.65,2.29,13.62,3.6,20.73,3.89.12,0,.24.01.35.01.76,0,1.35-.1,1.68-.16l.1-.02c.84-.14,3.04-.63,5.15-2.13.26-.18.54-.4.84-.66.8-.69,1.73-1.73,2.75-3.46.05-.07.09-.15.13-.23.06-.1.12-.21.18-.33.06-.12.12-.23.18-.35.04-.08.08-.15.12-.23.06-.12.12-.24.18-.37.05-.09.09-.18.13-.27.03-.07.34-.77.35-.77.33-.76.6-1.52.84-2.28h0s-.02.01-.02.01c-.35.2-.74.34-1.15.39-.13.02-.27.02-.4.02-1.72,0-3.25-1.46-3.51-3.44-.27-2.13,1.03-4.04,2.91-4.29.13-.02.26-.03.39-.03,1.14,0,2.19.63,2.85,1.63,0,.01.02.02.02.04.07-.88.07-2.64.05-2.65ZM55.65,58.46c-1.16,1.32-2.78,2-4.37,2-1.28,0-2.55-.44-3.56-1.33-2.28-2.01-2.44-5.57-.34-7.95,1.16-1.32,2.77-2,4.37-2,1.28,0,2.54.44,3.56,1.33,2.28,2.01,2.44,5.57.34,7.95ZM66.22,57.99c-.02.1-.05.2-.08.3,0,.01,0,.02-.01.03-.01.05-.03.09-.05.13,0,.02-.01.05-.02.07,0,.02-.01.04-.02.06,0,.02-.01.04-.02.06-.02.05-.03.09-.06.13-.03.07-.06.14-.1.21-.03.07-.07.13-.1.19-.03.06-.07.13-.11.19-.06.09-.12.18-.18.27-.11.15-.23.29-.36.42-.02.03-.05.06-.08.08-.02.03-.05.05-.08.07-.08.08-.16.15-.24.21-.08.07-.17.13-.25.18-.04.03-.08.06-.13.08-.04.03-.09.05-.13.07-.04.02-.09.05-.13.07-.09.05-.17.08-.27.12-.06.02-.11.04-.16.06-.01,0-.02,0-.03.01-.07.02-.13.03-.2.05-.01,0-.03.01-.05.01-.08.02-.15.03-.23.03-.08.01-.16.01-.24.01-.19,0-.37-.02-.55-.08-.95-.29-1.69-1.45-1.83-2.88-.02-.22.16-.4.38-.37.72.07,1.55.12,2.46.08.92-.03,1.75-.14,2.47-.27.02,0,.05,0,.07,0,.11,0,.21.06.27.15.01.02.02.03.03.06.01.02.02.04.02.06h0s0,.05,0,.07c0,.03,0,.06-.01.08Z"/>
        <path class="cls-4" d="M55.65,58.46c-1.16,1.32-2.78,2-4.37,2-1.28,0-2.55-.44-3.56-1.33-2.28-2.01-2.44-5.57-.34-7.95,1.16-1.32,2.77-2,4.37-2,1.28,0,2.54.44,3.56,1.33,2.28,2.01,2.44,5.57.34,7.95Z"/>
        <path class="cls-4" d="M52.22,13.53s.02.06.03.09c.01.03.02.06.04.09-.02-.07-.05-.13-.07-.19ZM59.4,24.41h-.02s.01,0,.02,0c.02,0,.04,0,.06-.02-.02.01-.04.01-.06.01Z"/>
        <g>
          <path class="cls-3" d="M51.31,11.96s-.05-.07-.08-.1c.02.02.05.05.07.08,0,0,.01.01.01.02Z"/>
          <path class="cls-3" d="M51.36,12.01s-.03-.04-.05-.06h0s.03.03.04.06Z"/>
          <path class="cls-3" d="M51.5,12.2s-.01-.02-.02-.03h0s.01.02.02.03Z"/>
          <path class="cls-3" d="M52.11,13.27c-.04-.08-.08-.17-.12-.26.01.02.02.03.03.05.02.04.04.08.06.12.01.03.02.05.03.08Z"/>
          <path class="cls-3" d="M52.29,13.72s-.02-.06-.04-.09c-.01-.03-.02-.06-.03-.09.03.06.05.12.07.19Z"/>
        </g>
        <path class="cls-4" d="M73.97,53.61c.01.16.01.33,0,.48,0,.07,0,.14-.01.21,0,.07-.01.14-.03.21-.02.14-.04.27-.07.4,0,0,0,0,0,0-.02.08-.05.16-.07.24-.05.16-.11.32-.18.46s-.14.29-.22.42c0,0,0,.01-.01.01-.04.07-.09.14-.14.2-.05.07-.1.14-.16.21-.05.06-.09.11-.14.16-.1.1-.21.21-.32.3-.06.05-.13.1-.2.15-.02.02-.05.03-.07.05-.04.03-.08.05-.12.08h0s-.02.01-.02.02c-.35.2-.74.34-1.15.39-.13.02-.27.02-.4.02-1.72,0-3.25-1.46-3.51-3.44-.27-2.13,1.03-4.04,2.91-4.29.13-.02.26-.03.39-.03,1.14,0,2.19.63,2.85,1.63,0,.01.02.02.02.04h0c.09.15.18.3.26.46.02.04.04.09.06.13.03.07.06.14.09.21.03.08.06.15.08.23.02.08.05.16.07.24.02.07.03.13.05.2,0,.03.01.07.02.1.01.06.02.13.03.19.01.1.02.19.03.29Z"/>
        <path class="cls-4" d="M72.22,57.21h0s-.02.01-.02.02c0,0,.02-.01.02-.02Z"/>
        <path class="cls-4" d="M91.9,44.42h0s-1.58.13-3.55.28c.01-.35.02-.71.03-1.06,0,0,0,0,0,0,.19-2.82.29-5.87.26-9.11-.04-3.68-.25-7.11-.55-10.23,0-.23-.04-.67-.26-1.15-.17-.35-.41-.67-.71-.92l-5.98-4.96c-.37-.31-.92-.15-1.09.32l-2.77,7.86c-.2.55-.21,1.16-.05,1.73.97,2.54,1.91,5.29,2.8,8.25,1.02,3.4,1.83,6.64,2.47,9.66-1.05.05-2.09.08-3.12.11-.23,0-.38.25-.27.45.12.22.23.45.35.68.07.15.14.29.21.43.12.26.38.42.66.42.1,0,.21,0,.31,0,.19.54.38,1.1.56,1.69.16.52.29,1.03.42,1.52.06.26.3.43.56.41.3-.02.62-.05.92-.08.02.7.02,1.37,0,2.02-.29.16-.56.37-.77.67-.41.56-.47,1.19-.48,1.38-.01.18-.06,1,.41,1.75.75,1.18,2.23,1.31,2.78,1.36.46.04,2.22.19,3.16-1,.47-.59.54-1.27.56-1.46.03-.27.06-.99-.33-1.67-.17-.29-.38-.51-.62-.69.03-.37.07-.73.1-1.1.05-.62.1-1.23.14-1.84.6-.09,1.2-.19,1.78-.29.22-.04.39-.2.44-.42.08-.39.16-.8.24-1.22.09-.56.16-1.09.22-1.6.13-.01.26-.02.4-.04.26-.03.48-.19.59-.43.06-.14.12-.28.17-.44.11-.3.28-.89.28-.92,0-.01,0-.03,0-.05,0-.16-.13-.29-.29-.3Z"/>
        <path class="cls-4" d="M66.22,57.99c-.57,2.29-2.58,3.42-3.87,3.02-.95-.29-1.69-1.45-1.83-2.88-.02-.22.16-.4.38-.37.72.07,1.55.12,2.46.08.92-.03,1.75-.14,2.47-.27.24-.04.45.18.39.42Z"/>
        <path class="cls-4" d="M66.93,18.15c-.36-1.92-1.51-3.69-2.7-4.65-1.14-.92-2.51-1.32-4.05-1.32-1.45,0-3.05.35-4.75.94-.59-2.03-1.79-3.76-3.45-4.92-.2-.14-.41-.27-.62-.39-.29-1.77-1.16-3.52-2.53-4.96-.84-.88-1.81-1.59-2.82-2.05-.43-.2-.89-.35-1.37-.48-.23-.06-.46-.1-.71-.15-.12-.02-.23-.04-.35-.05-.13-.02-.27-.03-.4-.05-.13-.01-.26-.02-.39-.03-.15-.01-.3-.01-.44-.02-.05,0-.09,0-.14,0-.13,0-.27,0-.4,0-.16,0-.33.01-.5.02-.11,0-.23.01-.34.02-.23.02-.46.05-.7.08-.1.01-.21.03-.31.05-.18.03-.36.07-.55.1-.09.02-.19.04-.28.06-.26.06-.51.13-.76.2-.08.02-.17.05-.26.08-.28.09-.55.18-.83.28-.27.1-.54.22-.8.34-.27.12-.53.25-.8.39s-.53.29-.79.44c-.91.55-1.79,1.21-2.61,1.98-.12.11-.23.22-.35.34-.7.69-1.34,1.46-1.93,2.33-1.07,1.57-1.04,3.54.08,5.04.14.19.3.38.48.56.3.31.64.59,1.02.84.32.21.68.31,1.05.31.31,0,.62-.07.9-.22.57-.3.91-.85.91-1.45.03-2.13.72-4.11,2-5.72.74-.93,1.52-1.6,2.63-2.25.34-.2.75-.44,1.23-.67.16-.07.33-.15.5-.22.71-.28,1.53-.49,2.47-.49.23,0,.46.01.7.04,1.62.18,2.85.95,3.61,1.58.81.87,1.41,1.86,1.76,2.88-.81-.23-1.67-.35-2.54-.35-3.77,0-7.64,2.2-10.12,5.73-1.78,2.54-2.68,5.51-2.55,8.35.06,1.1.27,2.16.63,3.14-1.14.51-2.23.92-3.25,1.21,0,0-4.65,1.3-6.08,4.17-.26.52-.43,1.02-.43,1.02-.26.99.02,1.7-.55,3.07-.78,1.87-1.77,1.93-2,3.53-.03.21-.2,1.39.33,2.33.04.07.09.15.14.22.56.77,1.61,1.13,2.72,1.13,1.38,0,2.88-.56,3.71-1.61.27-.34.47-.74.67-1.1.3-.56.6-1.03,1.16-1.15.02,0,.15-.03.31-.03.24,0,.58.05.8.3.01.01.02.03.04.05.93,1.26-2.55,4.97-1.46,7.76.75,1.93,3.24,2.35,3.69,2.43.3.05.63.08.97.08,1.43,0,3.11-.48,4.05-1.85,1.94-2.81-.36-7.69,1.37-9.45.69-.7,1.49-.72,1.56-.72h.03c.17,0,1.03.03,1.54.67.64.8-.02,1.57.49,2.79.37.87,1.22,1.67,2.16,1.76.06,0,.12,0,.17,0,.95,0,1.69-.72,1.87-.89,2.27-2.21.28-5.95,2.44-7.95.06-.05,1.02-.86,2.08-.86.16,0,.33.02.49.06,1.12.3,1.31,1.5,2.52,1.68.1.01.2.02.29.02.56,0,1.13-.22,1.53-.56.76-.65.64-1.36,1.47-3,.98-1.93,2.3-1.64,4.26-3.44.37-.34,2.98-2.77,3.15-5.84.03-.5-.01-1.01-.1-1.5ZM52.69,16.68c0,.14-.02.29-.03.43-.03.34-.09.67-.16,1.01-.3,1.42-.94,2.86-1.92,4.17-1.97,2.65-4.81,4.13-7.4,4.13-1.27,0-2.48-.36-3.5-1.11-.71-.53-1.27-1.21-1.66-1.99-.14-.29-.27-.59-.37-.91-.12-.36-.21-.74-.27-1.13-.35-2.29.33-4.97,2.05-7.28,1.97-2.65,4.81-4.13,7.4-4.13.12,0,.24,0,.35.01h.02c.1,0,.19.01.29.02.09,0,.19.02.28.03.08.01.15.02.22.04.08.01.17.03.25.05.12.03.23.06.34.09.1.03.21.06.31.1.02,0,.03.01.06.02.1.03.19.07.29.12.1.04.2.09.29.14,0,0,.02.01.02.01-.26,1-.78,1.95-1.57,2.84-.32.36-.29.91.07,1.23.16.15.37.22.58.22.24,0,.48-.1.65-.29.8-.89,1.38-1.86,1.74-2.88.07.07.14.15.2.22.02.02.05.05.07.08,0,0,.01.01.02.02.01.02.03.03.04.06.03.03.05.07.07.1.02.02.03.03.05.06,0,0,.01.02.02.03.02.02.04.05.06.08.11.16.21.32.31.49.05.08.09.16.13.25.01.02.02.03.03.05.02.04.04.08.06.12.01.03.02.05.03.08.03.08.07.16.1.25,0,0,0,.01,0,.01.03.06.05.12.07.19,0,.02.01.03.02.05.01.04.03.09.04.13s.03.09.04.13c.03.09.06.18.08.28h0s.01.05.02.07c.02.09.05.19.06.29.02.1.04.2.05.29.02.09.03.18.04.27s.02.18.03.27c.01.12.02.24.02.37,0,.12,0,.23,0,.35,0,.15,0,.31-.01.47ZM59.23,24.72c-.14.07-.28-.09-.19-.21.82-1.1,1.93-2.95,2.42-5.47.1-.53.16-1.04.2-1.51h0c.03-.32.22-.6.52-.7.18-.06.4-.09.63-.06.29.03.54.14.72.28.15.12.23.3.26.49,0,.03,0,.06.01.09.35,2.54-1.39,5.46-4.56,7.1Z"/>
        <path class="cls-3" d="M52.71,16.21c0,.15,0,.31-.01.47,0,.14-.02.29-.03.43-.03.34-.09.67-.16,1.01-.3,1.42-.94,2.86-1.92,4.17-1.97,2.65-4.81,4.13-7.4,4.13-1.27,0-2.48-.36-3.5-1.11-.71-.53-1.27-1.21-1.66-1.99-.14-.29-.27-.59-.37-.91-.12-.36-.21-.74-.27-1.13-.35-2.29.33-4.97,2.05-7.28,1.97-2.65,4.81-4.13,7.4-4.13.12,0,.24,0,.35.01h.02c.1,0,.19.01.29.02.09,0,.19.02.28.03.08.01.15.02.22.04.08.01.17.03.25.05.12.03.23.06.34.09.1.03.21.06.31.1.02,0,.03.01.06.02.1.03.19.07.29.12.1.04.2.09.29.14,0,0,.02.01.02.01-.26,1-.78,1.95-1.57,2.84-.32.36-.29.91.07,1.23.16.15.37.22.58.22.24,0,.48-.1.65-.29.8-.89,1.38-1.86,1.74-2.88.07.07.14.15.2.22.03.03.06.07.08.1.01.02.03.04.05.06.03.03.05.07.07.1.02.02.03.03.04.06,0,0,.01.02.02.03.02.02.04.05.06.08.11.16.21.32.31.49.05.08.09.16.13.25s.08.17.12.26c.03.08.07.16.1.25,0,0,0,.01,0,.01.01.03.02.06.03.09.01.03.02.06.04.09,0,.02.01.03.02.05.01.04.03.09.04.13s.03.09.04.13c.03.09.06.18.08.28h0s.01.05.02.07c.02.09.05.19.06.29.02.1.04.2.05.29.02.09.03.18.04.27.01.09.02.18.03.27.01.12.02.24.02.37,0,.12,0,.23,0,.35Z"/>
        <path class="cls-4" d="M75.4,75.11c-1.6,4.58-18.27,2.94-37.24-3.68-18.97-6.62-33.04-15.7-31.44-20.28.78-2.23,5.12-2.99,11.56-2.41-.33.49-.66.94-1,1.36-1.02,1.26-1.46,2.83-1.26,4.42v.03s0,.03,0,.03c.24,1.61,1.12,3.03,2.47,4,5.72,4.07,12.02,7.3,18.75,9.62,7,2.41,14.33,3.79,21.8,4.09.18.01.36.01.53.01,1.02,0,1.83-.13,2.35-.22h.07c1.39-.25,4.09-.92,6.74-2.8.41-.29.78-.58,1.14-.9.19-.16.38-.34.57-.52,3.7,2.84,5.58,5.4,4.94,7.24Z"/>
        <path class="cls-4" d="M81.62,78.33c-.57,1.64-2.2,4.6-6.67,6.06-2,.65-4.38.96-7.3.96-1.23,0-2.59-.06-4.04-.18l-2.65,2.02c-1.24.95-2.72,1.45-4.27,1.45-.3,0-.61-.02-.91-.06-7.18-.94-15.21-2.99-23.23-5.92-7.02-2.57-13.75-5.72-19.45-9.11-1.79-1.06-3.06-2.88-3.49-4.99l-.59-2.89c-2.39-1.71-4.31-3.38-5.7-4.97-1.23-1.41-2.09-2.79-2.64-4.22-1.05-2.75-.68-5.03-.18-6.46.57-1.64,2.2-4.59,6.67-6.05,2-.65,4.38-.96,7.3-.96,1.97,0,4.2.15,6.63.45-.49,1.13-1,2.18-1.53,3.15-1.86-.2-3.57-.3-5.1-.3-2.57,0-4.63.26-6.28.8-2.96.96-4.12,2.71-4.58,4-.31.91-.55,2.37.15,4.18.41,1.06,1.08,2.12,2.05,3.23,1.59,1.83,3.99,3.79,7.14,5.82,6.15,3.97,14.72,7.96,24.13,11.25,5.8,2.02,11.66,3.67,16.94,4.78,5.23,1.1,9.95,1.68,13.64,1.68,2.57,0,4.62-.26,6.28-.8,2.96-.96,4.12-2.71,4.58-4,.31-.91.55-2.37-.15-4.18-.41-1.07-1.08-2.12-2.05-3.23-1.05-1.21-2.48-2.49-4.23-3.8.52-.69,1.02-1.46,1.51-2.31.09-.16.18-.32.27-.48,2.04,1.5,3.7,2.99,4.95,4.43,1.23,1.41,2.09,2.79,2.64,4.22,1.06,2.75.69,5.03.19,6.45Z"/>
        <path class="cls-1" d="M59.23,24.72c-.14.07-.28-.09-.19-.21.82-1.1,1.93-2.95,2.42-5.47.1-.53.16-1.04.2-1.51h0c.03-.32.22-.6.52-.7.18-.06.4-.09.63-.06.29.03.54.14.72.28.15.12.23.3.26.49,0,.03,0,.06.01.09.35,2.54-1.39,5.46-4.56,7.1Z"/>
      </g>
      <g>
        <g>
          <path class="cls-4" d="M127.95,29.6h0c-.12-1.33-.95-2.44-2.11-2.85-.64-.22-1.28-.44-1.92-.66.66-.96,1.31-1.92,1.97-2.88.03-.04.04-.08.04-.13l-.09-9.04c0-.91-.38-1.76-1.01-2.33-.66-.59-1.32-1.17-1.98-1.75l-.28-.25s-.02-.01-.03-.02c-.26-.16-.57-.23-.89-.19-.01,0-.02,0-.03,0l-.4.11s-.01,0-.02,0c-4.95,1.44-10.09,3-15.74,4.77-1.61.51-2.75,2.07-2.72,3.72,0,.61.09,1.34.17,2.06.07.61.13,1.19.15,1.68.2,4.64.16,9.13.12,13.46-.03,3.02-.06,6.13,0,9.3,0,.08.04.15.11.18,1.11.68,2.23,1.38,3.43,2.15.23.15.49.22.75.22.25,0,.5-.07.73-.21,1.19-.73,2.44-1.5,3.71-2.31,4.23-.1,8.49-.19,12.66-.28.53-.01,1.04-.26,1.41-.67.78-.91,1.57-1.82,2.35-2.73.38-.44.57-1.04.51-1.64-.29-3.25-.58-6.5-.87-9.74ZM119.77,37.12c-2.62.2-5.33.41-8.04.63l-.31-6.45c2.73-.29,5.48-.56,8.18-.82l.17,6.64ZM117.51,23.91c-2.09.39-4.24.79-6.38,1.2l-.28-6c2.07-.32,4.16-.64,6.22-.94l.45,5.74Z"/>
          <path class="cls-4" d="M146.74,21c-2.04-.89-5.04-2.16-7.15-3.03-.58-.24-1.23-.25-1.82-.03-1.7.62-3.43,1.26-5.28,1.95-.11.04-.17.15-.14.26.44,1.63.87,3.26,1.31,4.9.03.12.15.19.27.16,2.21-.57,4.36-1.12,6.41-1.63l.45,4.85c-2.49.32-5.1.68-7.76,1.04-1.42.2-2.47,1.56-2.39,3.11.01.24.07.77.14,1.34.06.54.12,1.1.13,1.32.06,1.17.08,2.03.09,2.86.01.57.02,1.16.05,1.85.01.31.15.6.37.81.66.61,1.09,1,1.74,1.6.21.2.49.31.78.31.05,0,.1,0,.15-.01l1.19-.16c2.56-.34,5.13-.69,7.69-1.03.87.3,1.74.59,2.61.89.26.09.54.06.77-.08l1.6-.97c.07-.04.11-.11.11-.19l.23-17.54c.01-1.13-.61-2.16-1.56-2.57ZM137.6,32.53c1.16-.17,2.31-.35,3.47-.52l.47,6.46c-.93-.35-1.87-.7-2.8-1.05-.38-1.63-.76-3.26-1.14-4.89Z"/>
          <path class="cls-4" d="M177.12,36.35h0c-1.05.05-2.1.11-3.14.16l-.16-12.32c1.76-.28,3.22-.51,4.58-.71.11-.02.19-.11.19-.22v-4.89c0-.07-.02-.13-.07-.17s-.11-.06-.18-.05c-1.36.22-2.82.48-4.58.79l-.05-3.51c0-.08-.04-.15-.11-.19-.54-.3-1.08-.6-1.61-.9-.07-.04-.16-.04-.23,0-2.44,1.63-3.18,2.13-5.57,3.77-.06.04-.1.11-.1.18,0,.69,0,1.38.05,2.07-2.37.47-4.82.97-7.27,1.5l-.07-4.55c0-.08-.04-.15-.11-.19-.69-.42-1.39-.83-2.08-1.25-.07-.04-.16-.04-.23,0-1.82,1.16-2.36,1.51-4.18,2.68-.06.04-.1.11-.1.18-.01.31-.03.62-.04.93-.03.69-.06,1.4-.07,2.1,0,.57-.02,1.1-.03,1.62l-.33.07c-.58.13-1.16.26-1.73.39-.1.02-.17.11-.17.22v4.28c0,.07.03.13.08.17.05.04.12.06.18.05.53-.11,1.05-.21,1.58-.32l.27-.05c-.1,3.44-.21,5.47-.32,7.43-.08,1.48-.17,3-.25,5.12,0,.07.03.14.09.19,1.21.9,2.42,1.79,3.62,2.69.21.16.46.24.72.24.1,0,.2-.01.29-.04,1-.26,2.01-.52,3.01-.77,1.78-.46,3.56-.91,5.33-1.36.1-.03.17-.11.17-.21v-3.32c0-.56-.22-1.08-.61-1.45-.34-.32-.78-.48-1.22-.45-1.2.08-2.4.16-3.6.24l-.14-9.69c2.55-.49,5.05-.95,7.45-1.37.1,3.21.1,6.18.09,9.05,0,2.15-.01,4.37.03,6.68,0,.07.04.14.09.18,1.03.73,2.06,1.47,3.1,2.2.3.21.66.28,1.01.2,1.06-.25,2.12-.51,3.19-.76,1.66-.39,3.32-.78,4.98-1.17.1-.02.17-.11.17-.22v-3.27c0-.57-.22-1.12-.62-1.49-.36-.34-.82-.52-1.29-.49Z"/>
          <path class="cls-4" d="M188.56,9.71c0-.11-.09-.21-.2-.22-1.93-.19-3.88-.36-5.81-.52-.04,0-.09,0-.13.03-.43.26-.87.52-1.3.79-.07.04-.11.11-.11.19,0,.45.02.96.04,1.44.02.48.03.98.04,1.43.03,4.77.06,9.57.08,14.21.02,4.63.04,9.41.08,14.16,0,.08.04.15.1.19.72.45,1.43.89,2.15,1.33.04.02.08.03.12.03.02,0,.04,0,.07,0,1.58-.49,3.05-.93,4.49-1.37.09-.03.16-.11.16-.21.02-3.06.01-6.69,0-10.2-.02-7.03-.04-14.3.21-17.32.07-.88.06-1.78.04-2.65,0-.43-.01-.87-.01-1.31Z"/>
          <path class="cls-4" d="M206.97,23.5c-.08-1.38-1.11-2.64-2.46-2.99-.79-.2-1.57-.41-2.36-.61-.89-.23-1.78-.19-2.59.12-1.14.43-2.31.89-3.49,1.36-1.18.47-2.39.96-3.6,1.47-1.32.55-2.16,1.9-2.13,3.45l.02,1.48c.19,3,.19,5.9.19,8.7,0,1.4,0,2.85.02,4.3,0,.08.05.16.13.2,1.68.8,3.24,1.53,4.77,2.24.03.01.06.02.09.02.02,0,.03,0,.05,0,.77-.18,1.53-.36,2.3-.54,2.87-.67,5.68-1.3,8.34-1.87.11-.02.19-.13.17-.24l-.25-2.08c-.14-1.17-1.16-2.05-2.33-2h0c-2.02.09-4.12.19-6.23.3l-.18-2.23c3.38-1.24,6.67-2.39,9.79-3.4.1-.03.16-.12.15-.22-.14-2.47-.27-4.95-.41-7.44ZM196.69,25.48c1.06-.17,2.13-.33,3.19-.49.15,1.27.29,2.54.44,3.8-1.04.73-2.1,1.48-3.17,2.26l-.45-5.56Z"/>
        </g>
        <g>
          <path class="cls-2" d="M138.42,46.28c-.08-.07-.2-.1-.3-.09-3.39.43-6.89.93-10.38,1.47-1.68.26-3.4.54-5.12.83-.68.11-1.32.37-1.92.76l-.3.2c-.52.34-.84.92-.83,1.5-.05,1.25-.06,2.51-.04,3.75.05,3.42.11,4.86.22,7.53.11,2.81.11,3.08.02,7.16-.07,2.88-.03,5.84.1,8.8,0,.08.05.14.12.18.81.39,1.61.78,2.42,1.18.03.01.06.02.09.02.02,0,.03,0,.05,0,1.62-.42,3.28-.85,5.07-1.32.09-.02.15-.11.16-.2l.08-11.39c3.24-.21,6.49-.41,9.64-.59.11,0,.2-.1.2-.22l-.21-5.7c0-.06-.03-.11-.07-.15-.04-.04-.1-.06-.15-.05-3.1.19-6.25.41-9.37.65l.05-6.68c3.56-.35,7.14-.66,10.65-.93.11,0,.2-.1.19-.22l-.23-6.21c0-.12-.05-.22-.14-.3Z"/>
          <path class="cls-2" d="M148.41,46c0-.06-.02-.11-.06-.15s-.1-.06-.15-.06c-1.93.04-3.89.11-5.82.18-.04,0-.08.01-.11.04-.43.3-.87.61-1.3.91-.06.04-.09.1-.09.17,0,.44.02.92.04,1.39.02.47.04.95.04,1.38.04,4.6.08,9.23.11,13.72.03,4.48.06,9.11.11,13.71,0,.07.04.14.1.18.72.42,1.43.84,2.15,1.27.03.02.07.03.11.03.02,0,.04,0,.06,0,1.5-.47,3-.93,4.49-1.4.09-.03.14-.11.14-.2.02-3.03,0-6.62-.02-10.1-.03-6.95-.07-14.14.17-17.15.07-.88.05-1.76.04-2.62,0-.43-.02-.86-.01-1.3Z"/>
          <path class="cls-2" d="M189.18,57.54c-.92-.5-1.84-.99-2.76-1.49-.53-.29-1.14-.26-1.61.06-.9.62-1.82,1.27-2.75,1.93-1.35.95-2.74,1.95-4.14,2.98l.06-3.83c0-.07-.03-.13-.09-.17l-1.32-.93s-.11-.05-.17-.03c-1.76.42-3.58.88-5.42,1.36-.44.11-.74.52-.75.99,0,.36-.01.71-.02,1.07-.02.71-.04,1.45-.01,2.18.21,5.86.08,8.65-.04,11.34-.06,1.35-.12,2.75-.15,4.52,0,.08.04.15.11.18.64.34,1.27.68,1.91,1.02.03.02.06.02.1.02.01,0,.03,0,.04,0,1.78-.36,3.56-.72,5.34-1.08.1-.02.16-.1.17-.2l.18-11.81c1.35-.38,2.68-.74,3.98-1.09l-.3,13.63c0,.11.08.21.2.21,1.92.1,3.84.2,5.77.3.1,0,.2-.07.21-.17.96-6.26,1.91-12.43,2.83-18.33.16-1.04-.4-2.13-1.36-2.65Z"/>
          <path class="cls-2" d="M166.58,58.26c-2.05-.97-5.03-2.36-7.08-3.32-.57-.27-1.21-.32-1.82-.15-1.7.49-3.49,1.01-5.32,1.56-.11.03-.18.15-.15.27l1.21,4.83c.03.11.14.19.26.16,2.21-.44,4.38-.85,6.45-1.23l.35,4.66c-2.54.2-5.15.42-7.77.65-1.43.13-2.51,1.41-2.46,2.93,0,.23.06.76.11,1.32.05.53.1,1.07.11,1.29.04,1.14.04,1.98.04,2.79,0,.66,0,1.34.02,2.19,0,.06.03.12.07.16.93.87,1.37,1.29,2.31,2.16.04.04.1.06.15.06,0,0,.02,0,.02,0,2.86-.3,5.71-.59,8.57-.89l.77-.08c.86.3,1.73.61,2.59.91.25.09.53.07.77-.06.54-.29,1.08-.59,1.62-.88.07-.04.11-.11.12-.19l.58-16.6c.04-1.08-.55-2.07-1.5-2.52ZM157.26,68.89c1.16-.14,2.31-.28,3.47-.42l.46,6.18-2.8-1.04-1.12-4.72Z"/>
        </g>
      </g>
    </g>
  </g>
</svg>