<?xml version="1.0" encoding="UTF-8"?>
<svg id="Layer_2" data-name="Layer 2" xmlns="http://www.w3.org/2000/svg" viewBox="0 0 47.54 76.44">
  <defs>
    <style>
      .cls-1 {
        fill: #e35e30;
      }

      .cls-2 {
        fill: #321334;
      }
    </style>
  </defs>
  <g id="Elementos">
    <g>
      <path class="cls-1" d="M38.76,71.81c-6.31,4.91-13.42,4.74-15.81,4.56-1.81-.14-7.91-.68-13.25-5.35-5.89-5.14-9.02-13.69-7.13-21.87,1.96-8.44,8.96-15.18,17.52-17.03.76-.16,1.47.45,1.43,1.22-.07,1.38-.23,2.78-.46,4.18-.48,2.84,1.45,5.54,4.29,6.02.32.05.6.07.87.07,2.56,0,4.73-1.84,5.15-4.37.27-1.64.46-3.27.56-4.88.05-.8.88-1.32,1.62-1.01,6.61,2.75,11.83,8.53,13.47,15.79,1.99,8.84-1.85,17.68-8.25,22.65Z"/>
      <path class="cls-2" d="M28.95,31.99c-.03,2.21-.23,4.47-.61,6.75-.18,1.06-1.09,1.8-2.12,1.8-.12,0-.24-.01-.36-.03-1.17-.2-1.97-1.3-1.77-2.48.36-2.18.55-4.33.57-6.43.04-6.32-1.46-12.15-4.27-16.77-.97-1.6-2.3-2.95-3.92-3.87-1.37-.77-3.16-1.47-5.2-1.47-.62,0-1.25.07-1.91.22-2.46.55-4.16,2-5.17,3.12-.42.46-1.01.71-1.61.71-.24,0-.49-.04-.72-.12-.82-.3-1.38-1.06-1.43-1.93L0,2.25c-.03-.6.2-1.18.62-1.61.41-.42.98-.63,1.56-.63h.05c5.15.18,9.77,1.57,13.71,4.13,2.44,1.57,4.56,3.58,6.36,5.92.07.09.14.17.2.26,4.27,5.71,6.57,13.35,6.45,21.68Z"/>
    </g>
  </g>
</svg>