<?xml version="1.0" encoding="UTF-8"?>
<svg id="Layer_2" data-name="Layer 2" xmlns="http://www.w3.org/2000/svg" viewBox="0 0 87.27 87.27">
  <defs>
    <style>
      .cls-1 {
        fill: #e35e30;
      }
    </style>
  </defs>
  <g id="Layer_1-2" data-name="Layer 1">
    <path class="cls-1" d="M62.49,1.62l-18.86,18.86L24.78,1.62c-2.17-2.17-5.68-2.17-7.84,0L1.62,16.93c-2.17,2.17-2.17,5.68,0,7.84l18.86,18.86L1.62,62.49c-2.17,2.17-2.17,5.68,0,7.84l15.31,15.31c2.17,2.17,5.68,2.17,7.84,0l18.86-18.86,18.86,18.86c2.17,2.17,5.68,2.17,7.84,0l15.31-15.31c2.17-2.17,2.17-5.68,0-7.84l-18.86-18.86,18.86-18.86c2.17-2.17,2.17-5.68,0-7.84l-15.31-15.31c-2.17-2.17-5.68-2.17-7.84,0Z"/>
  </g>
</svg>