<?xml version="1.0" encoding="UTF-8"?>
<svg id="Layer_2" data-name="Layer 2" xmlns="http://www.w3.org/2000/svg" viewBox="0 0 137.92 49.57">
  <defs>
    <style>
      .cls-1 {
        fill: #fff;
      }
    </style>
  </defs>
  <g id="Elementos">
    <path class="cls-1" d="M46.52,48.22v-11.28l60.08,6.72c2.38.27,4.78-.3,6.78-1.6l23.41-15.2c1.5-.97,1.5-3.16,0-4.14l-23.41-15.2c-2.01-1.3-4.4-1.87-6.78-1.6l-60.08,6.72V1.35c0-.92-.91-1.58-1.78-1.28l-3.72,1.27c-1.21.41-2.02,1.55-2.02,2.82v1.1l-8.14,1.63c-1.58.32-2.71,1.7-2.71,3.31v6.02l-10.62.46c-.68-1.09-1.58-2.08-2.8-2.8-2.09-1.23-4.29-1.23-4.97-1.22-.64,0-3.48.11-5.94,2.01C-.05,17.66-.01,22.85,0,24.79c.01,1.61.05,7.77,4.5,10.66,2.2,1.43,4.59,1.47,5.26,1.48.93,0,3.48-.11,5.72-1.7.92-.66,1.64-1.45,2.19-2.32l10.49.46v6.02c0,1.61,1.13,2.99,2.71,3.31l8.14,1.63v1.1c0,1.27.81,2.41,2.02,2.82l3.72,1.27c.88.3,1.78-.35,1.78-1.28Z"/>
  </g>
</svg>